<svg id="Layer_1" xmlns="http://www.w3.org/2000/svg" viewBox="0 0 200 200">
  <style>
    .st0{fill:#FFFFFF;stroke:#231F20;stroke-width:10;stroke-miterlimit:10;} .st1{fill:#FFFFFF;stroke:#000000;stroke-width:3.35;stroke-miterlimit:10;} .st2{fill:none;stroke:#000000;stroke-width:3.35;stroke-miterlimit:10;} .st3{fill:#FFFFFF;}
  </style>
  <path d="M116.9 92.1c13 .2 26.5.4 26.5.4 2.6 0 4.8-2.1 4.8-4.8 0-2.6-2.1-4.8-4.8-4.8 0 0-13.3.3-26.4.6.2-13 .4-26.6.4-26.6 0-2.6-2.1-4.8-4.8-4.8-2.6 0-4.8 2.1-4.8 4.8 0 0 .3 13.5.6 26.8-6 .1-11.3.2-14.4.2-3.1 0-8.3-.1-14.2-.2.4-13.1.6-26.7.6-26.7 0-2.6-2.1-4.8-4.8-4.8-2.6 0-4.8 2.1-4.8 4.8 0 0 .3 13.4.6 26.6-13.2-.3-26.5-.6-26.5-.6-2.6 0-4.8 2.1-4.8 4.8 0 2.6 2.1 4.8 4.8 4.8 0 0 13.7-.2 26.8-.4.1 5.9.2 11.2.2 14.2 0 2.9-.1 7.8-.2 13.4-13.3-.3-26.8-.6-26.8-.6-2.6 0-4.8 2.1-4.8 4.8 0 2.6 2.1 4.8 4.8 4.8 0 0 13.6-.2 26.6-.4-.3 13.5-.6 27.4-.6 27.4 0 2.6 2.1 4.8 4.8 4.8 2.6 0 4.8-2.1 4.8-4.8 0 0-.2-14.2-.4-27.5 6.5-.1 12-.2 14.2-.3 2.3.1 7.8.2 14.4.3-.3 13.5-.6 27.5-.6 27.5 0 2.6 2.1 4.8 4.8 4.8 2.6 0 4.8-2.1 4.8-4.8 0 0-.2-14.1-.4-27.4 13 .2 26.4.4 26.4.4 2.6 0 4.8-2.1 4.8-4.8 0-2.6-2.1-4.8-4.8-4.8 0 0-13.4.3-26.6.6-.1-6.2-.2-11.3-.3-13.4-.1-2.4 0-7.8.1-14.3zm-22.7 28c-3.1 0-8.4-.1-14.4-.2-.1-6.2-.2-11.4-.3-13.6.1-2.3.2-7.8.3-14.4 6.6-.1 12.1-.2 14.4-.3 2.3.1 7.9.2 14.6.3.1 6 .2 11.3.2 14.4 0 3-.1 7.9-.2 13.6-6.1.1-11.5.2-14.6.2z"/>
</svg>
