<svg id="Layer_1" xmlns="http://www.w3.org/2000/svg" viewBox="0 0 200 200">
  <style>
    .st0{fill:#FFFFFF;stroke:#231F20;stroke-width:10;stroke-miterlimit:10;} .st1{fill:#FFFFFF;stroke:#000000;stroke-width:3.35;stroke-miterlimit:10;} .st2{fill:none;stroke:#000000;stroke-width:3.35;stroke-miterlimit:10;} .st3{fill:#FFFFFF;}
  </style>
  <path d="M121.3 111.6h13.3c.7 6.9 6.5 12.3 13.6 12.3 7.6 0 13.7-6.1 13.7-13.7s-6.1-13.7-13.7-13.7c-7.1 0-12.9 5.4-13.6 12.3h-13.3c-.6-9.7-7.5-17.6-16.7-19.8V69.6L128 56.1c1.2-.7 1.2-2.5 0-3.2l-23.4-14.5v-1c0-1.4-1.1-2.5-2.5-2.5h-6c-1.4 0-2.5 1.1-2.5 2.5v51.9c-8.6 2.5-15 10.2-15.6 19.5H64.7c-.7-6.9-6.5-12.3-13.6-12.3-7.6 0-13.7 6.1-13.7 13.7s6.1 13.7 13.7 13.7c7.1 0 12.9-5.4 13.6-12.3H78c.3 5.1 2.4 9.8 5.7 13.3l-14.4 13.3c-2.4-2.1-5.6-3.4-9-3.4-7.6 0-13.7 6.1-13.7 13.7s6.1 13.7 13.7 13.7S74 156.1 74 148.6c0-3.1-1-5.9-2.8-8.2l14.5-13.5c3.4 2.9 7.8 4.7 12.6 5v13.8c-6.9.7-12.3 6.5-12.3 13.6 0 7.6 6.1 13.7 13.7 13.7s13.7-6.1 13.7-13.7c0-7.1-5.4-12.9-12.3-13.6v-13.8c4.8-.3 9.1-2.1 12.5-5l15.2 14.7c-1.8 2.3-2.9 5.3-2.9 8.5 0 7.6 6.1 13.7 13.7 13.7s13.7-6.1 13.7-13.7-6.1-13.7-13.7-13.7c-3.4 0-6.4 1.2-8.8 3.2L115.6 125c3.3-3.6 5.4-8.2 5.7-13.4zm-16.6-70l19.1 11.9c.7.4.7 1.4 0 1.8l-19.1 11.1V41.6zm43.5 57.7c6 0 10.9 4.9 10.9 10.9s-4.9 10.9-10.9 10.9-10.9-4.9-10.9-10.9 4.9-10.9 10.9-10.9zm-97.1 21.8c-6 0-10.9-4.9-10.9-10.9s4.9-10.9 10.9-10.9S62 104.2 62 110.2s-4.9 10.9-10.9 10.9zm9.2 38.4c-6 0-10.9-4.9-10.9-10.9s4.9-10.9 10.9-10.9 10.9 4.9 10.9 10.9-4.9 10.9-10.9 10.9zm50.3-.2c0 6-4.9 10.9-10.9 10.9s-10.9-4.9-10.9-10.9 4.9-10.9 10.9-10.9 10.9 4.9 10.9 10.9zm29-20.2c6 0 10.9 4.9 10.9 10.9s-4.9 10.9-10.9 10.9-10.9-4.9-10.9-10.9 4.8-10.9 10.9-10.9z"/>
</svg>
