<svg id="Layer_1" xmlns="http://www.w3.org/2000/svg" viewBox="0 0 200 200">
  <style>
    .st0{fill:#FFFFFF;stroke:#231F20;stroke-width:10;stroke-miterlimit:10;} .st1{fill:#FFFFFF;stroke:#000000;stroke-width:3.35;stroke-miterlimit:10;} .st2{fill:none;stroke:#000000;stroke-width:3.35;stroke-miterlimit:10;} .st3{fill:#FFFFFF;}
  </style>
  <path d="M132.6 60.6c2-4.5 0-9.7-4.5-11.7l-13-5.8c-4.5-2-9.7 0-11.7 4.5L99 57.4s-8.6 20-14.9 34.2-15.9 34.8-15.9 34.8c-.6 1.3-.8 2.7-.7 4.1l2.5 26.9c.1 1.4 1.8 2.2 2.9 1.3l21.7-16c1.1-.8 2-1.9 2.6-3.2 0 0 10.8-24.4 15.3-34.9 4.6-10.1 15.5-34.1 15.5-34.1l4.6-9.9zM83 147.3l-11.1-5-1.3-12.6 10 4.5 2.8 1.3 10 4.5-10.4 7.3zm11.9-10l-10.3-4.6 30.5-68.1-2.8-1.3-30.5 68.1-10.3-4.6L102 58.7l23.5 10.5-30.6 68.1z"/>
</svg>
