<svg width="1385" height="668" viewBox="0 0 1385 668" fill="none" xmlns="http://www.w3.org/2000/svg">
<g filter="url(#filter0_f_309_166)">
<path d="M127.864 26.6243H70.8329H30.1982C24.8516 26.6243 22 29.8257 22 35.1614V267.443C22 272.778 24.8516 275.624 30.1982 275.624H38.04H127.864C196.658 275.624 248.342 221.2 248.342 151.124C248.342 81.4042 196.658 26.6243 127.864 26.6243ZM127.864 228.67H70.8329V73.5785H127.864C171.35 73.5785 200.935 105.237 200.935 151.124C200.935 197.367 171.35 228.67 127.864 228.67Z" fill="#141640"/>
<path d="M451.301 228.67H360.764V172.823H440.608C445.955 172.823 449.163 169.977 449.163 164.286V135.473C449.163 130.137 445.955 126.936 440.608 126.936H360.764V73.5785H449.519C454.866 73.5785 458.074 70.7328 458.074 65.3971V35.1614C458.074 29.8257 454.866 26.6243 449.519 26.6243H360.764H320.13C314.783 26.6243 311.931 29.8257 311.931 35.1614V267.443C311.931 272.778 314.783 275.624 320.13 275.624H327.972H451.301C456.648 275.624 459.856 272.778 459.856 267.443V237.207C459.856 231.871 456.648 228.67 451.301 228.67Z" fill="#141640"/>
<path d="M599.83 280.604C646.168 280.604 685.733 255.348 685.733 207.683C685.733 155.037 638.683 142.231 602.325 129.07C579.513 120.533 562.403 112.707 562.403 94.2099C562.403 79.9814 574.166 69.6657 594.483 69.6657C613.731 69.6657 625.851 77.4914 629.059 94.2099C629.771 99.5456 632.623 102.036 637.613 102.036H669.693C675.396 102.036 678.604 99.1899 678.248 93.4985C673.971 44.41 635.475 22 594.483 22C552.779 22 513.214 46.5443 513.214 94.2099C513.214 147.211 557.057 161.44 593.058 173.89C616.583 182.427 636.544 189.897 636.544 207.683C636.544 222.267 624.781 232.938 599.83 232.938C575.592 232.938 561.334 224.046 558.483 207.327C557.413 201.636 554.918 199.146 549.571 199.146H517.491C512.145 199.146 508.937 201.991 509.293 207.683C513.214 257.483 553.492 280.604 599.83 280.604Z" fill="#141640"/>
<path d="M746.293 35.1614V267.443C746.293 272.778 749.144 275.624 754.491 275.624H786.571C792.274 275.624 795.126 272.778 795.126 267.443V35.1614C795.126 29.8257 792.274 26.6243 786.571 26.6243H754.491C749.144 26.6243 746.293 29.8257 746.293 35.1614Z" fill="#141640"/>
<path d="M1100.45 142.231H998.862C993.515 142.231 990.307 145.077 990.307 150.768V177.091C990.307 182.427 993.515 185.273 998.862 185.273H1059.81C1051.97 220.488 1020.6 235.428 988.168 235.428C941.118 235.428 907.612 201.636 907.612 151.124C907.612 103.458 939.692 69.6657 988.168 69.6657C1017.4 69.6657 1043.06 84.2499 1054.47 104.17C1056.96 108.438 1059.81 110.217 1064.45 110.217H1099.02C1105.08 110.217 1108.29 106.66 1106.15 100.969C1090.82 55.7928 1043.42 22 988.168 22C912.958 22 858.422 78.5585 858.422 151.124C858.422 224.046 911.889 280.604 982.822 280.604C1017.04 280.604 1045.2 268.154 1062.67 244.321V267.443C1062.67 272.778 1065.52 275.624 1071.22 275.624H1100.45C1105.8 275.624 1109 272.778 1109 267.443V185.273V150.768C1109 145.077 1105.8 142.231 1100.45 142.231Z" fill="#141640"/>
<path d="M1312.94 35.1614V180.648L1219.56 32.3157C1217.06 28.4029 1213.5 26.6243 1209.22 26.6243H1186.76C1181.42 26.6243 1178.57 29.8257 1178.57 35.1614V267.443C1178.57 272.778 1181.42 275.624 1186.76 275.624H1218.84C1224.55 275.624 1227.4 272.778 1227.4 267.443V121.956L1320.79 270.288C1323.28 274.201 1326.85 275.624 1331.48 275.624H1353.58C1358.93 275.624 1362.13 272.778 1362.13 267.443V35.1614C1362.13 29.8257 1358.93 26.6243 1353.58 26.6243H1321.5C1316.15 26.6243 1312.94 29.8257 1312.94 35.1614Z" fill="#141640"/>
<path d="M457.797 646C512.398 646 559 611.846 573.607 562.705C574.998 557.478 571.868 553.992 566.303 553.992H532.569C528.048 553.992 525.266 556.432 523.179 560.614C512.398 584.313 487.011 599.299 457.797 599.299C410.152 599.299 378.852 566.19 378.852 519.141C378.852 472.44 410.152 439.332 457.797 439.332C487.011 439.332 512.398 454.318 523.179 478.017C525.266 482.199 528.048 484.29 532.569 484.29H566.303C571.868 484.29 574.998 480.805 573.607 475.229C558.652 426.088 512.05 392.631 457.797 392.631C384.069 392.631 330.859 448.044 330.859 519.141C330.859 590.586 384.069 646 457.797 646Z" fill="#141640"/>
<path d="M746.783 646C816.686 646 873.025 590.586 873.025 519.141C873.025 448.044 816.686 392.631 746.783 392.631C676.532 392.631 620.192 448.044 620.192 519.141C620.192 590.586 676.532 646 746.783 646ZM746.783 599.299C702.615 599.299 668.185 566.19 668.185 519.141C668.185 472.44 702.615 439.332 746.783 439.332C790.95 439.332 825.38 472.44 825.38 519.141C825.38 566.19 790.95 599.299 746.783 599.299Z" fill="#141640"/>
<path d="M1038.22 397.162H982.572H942.926C937.709 397.162 934.927 400.298 934.927 405.526V633.105C934.927 638.333 937.709 641.121 942.926 641.121H950.577H1038.22C1105.34 641.121 1155.76 587.798 1155.76 519.141C1155.76 450.833 1105.34 397.162 1038.22 397.162ZM1038.22 595.117H982.572V443.165H1038.22C1080.64 443.165 1109.51 474.183 1109.51 519.141C1109.51 564.448 1080.64 595.117 1038.22 595.117Z" fill="#141640"/>
<path d="M1353.79 595.117H1265.45V540.4H1343.35C1348.57 540.4 1351.7 537.612 1351.7 532.036V503.807C1351.7 498.579 1348.57 495.442 1343.35 495.442H1265.45V443.165H1352.05C1357.27 443.165 1360.4 440.377 1360.4 435.149V405.526C1360.4 400.298 1357.27 397.162 1352.05 397.162H1265.45H1225.81C1220.59 397.162 1217.81 400.298 1217.81 405.526V633.105C1217.81 638.333 1220.59 641.121 1225.81 641.121H1233.46H1353.79C1359 641.121 1362.13 638.333 1362.13 633.105V603.481C1362.13 598.254 1359 595.117 1353.79 595.117Z" fill="#141640"/>
<path d="M216.264 491.954H152.421V427.656C152.421 420.816 148.317 416.711 141.477 416.711H107.731C100.891 416.711 97.243 420.816 97.243 427.656V491.954H32.9444C26.1042 491.954 22 495.603 22 502.899V536.188C22 543.028 26.1042 547.133 32.9444 547.133H97.243V611.431C97.243 618.271 100.891 621.919 107.731 621.919H141.477C148.317 621.919 152.421 618.271 152.421 611.431V547.133H216.264C223.56 547.133 227.208 543.028 227.208 536.188V502.899C227.208 495.603 223.56 491.954 216.264 491.954Z" fill="#141640"/>
</g>
<defs>
<filter id="filter0_f_309_166" x="0" y="0" width="1384.13" height="668" filterUnits="userSpaceOnUse" color-interpolation-filters="sRGB">
<feFlood flood-opacity="0" result="BackgroundImageFix"/>
<feBlend mode="normal" in="SourceGraphic" in2="BackgroundImageFix" result="shape"/>
<feGaussianBlur stdDeviation="11" result="effect1_foregroundBlur_309_166"/>
</filter>
</defs>
</svg>
