<svg width="83" height="62" viewBox="0 0 83 62" fill="none" xmlns="http://www.w3.org/2000/svg">
<path fill-rule="evenodd" clip-rule="evenodd" d="M12.7118 5.01348C12.0004 5.01348 11.3181 5.29519 10.8151 5.79663C10.312 6.29808 10.0294 6.97818 10.0294 7.68733V33.5903C10.0294 39.7954 12.5022 45.7463 16.9038 50.1339C21.3054 54.5216 27.2752 56.9865 33.5 56.9865C39.7248 56.9865 45.6946 54.5216 50.0962 50.1339C54.4978 45.7463 56.9706 39.7954 56.9706 33.5903V7.68733C56.9706 6.97819 56.688 6.29808 56.1849 5.79663C55.6819 5.29519 54.9996 5.01348 54.2882 5.01348H12.7118ZM12.7118 0H54.2882C56.3335 0 58.295 0.809913 59.7413 2.25157C61.1875 3.69322 62 5.64852 62 7.68733V33.5903C62 41.125 58.9973 48.3511 53.6525 53.679C48.3078 59.0068 41.0587 62 33.5 62C25.9413 62 18.6922 59.0068 13.3475 53.679C8.00267 48.3511 5 41.125 5 33.5903V7.68733C5 5.64853 5.81249 3.69322 7.25872 2.25157C8.70496 0.809912 10.6665 0 12.7118 0Z" fill="#33B99C"/>
<path fill-rule="evenodd" clip-rule="evenodd" d="M0 59.5C0 58.1193 1.11251 57 2.48485 57H79.5151C80.8875 57 82 58.1193 82 59.5C82 60.8807 80.8875 62 79.5151 62H2.48485C1.11251 62 0 60.8807 0 59.5Z" fill="#33B99C"/>
<path fill-rule="evenodd" clip-rule="evenodd" d="M57.513 7.5C57.513 6.11929 58.6245 5 59.9955 5H65.1332C69.8676 5.01371 74.4042 6.91379 77.7519 10.2851C81.0996 13.6565 82.9864 18.225 83 22.9928L80.5175 23L83 23.0072C82.9864 27.775 81.0996 32.3435 77.7519 35.7149C74.4042 39.0862 69.8676 40.9863 65.1332 41L65.126 41H59.4825C58.1115 41 57 39.8807 57 38.5C57 37.1193 58.1115 36 59.4825 36H65.1221C68.5435 35.9892 71.8217 34.6158 74.2411 32.1793C76.6595 29.7439 78.0233 26.4441 78.035 23C78.0233 19.5559 76.6595 16.2561 74.2411 13.8207C71.8218 11.3843 68.5436 10.0108 65.1223 10H59.9955C58.6245 10 57.513 8.88071 57.513 7.5Z" fill="#33B99C"/>
</svg>
