<svg width="23" height="24" viewBox="0 0 23 24" fill="none" xmlns="http://www.w3.org/2000/svg">
<path d="M4.69543 16.6872L3.40091 16.7526C3.02762 16.7723 2.65736 16.676 2.34106 16.4768C2.02475 16.2776 1.77791 15.9853 1.63449 15.6401C1.49107 15.2948 1.4581 14.9137 1.54013 14.549C1.62215 14.1843 1.81513 13.8539 2.09254 13.6034L3.05452 12.7354C3.24234 12.5656 3.39248 12.3583 3.49523 12.1269C3.59798 11.8955 3.65107 11.6451 3.65107 11.3919C3.65107 11.1387 3.59798 10.8883 3.49523 10.6569C3.39248 10.4255 3.24234 10.2182 3.05452 10.0484L2.09254 9.18044C1.81474 8.92996 1.62141 8.59953 1.53916 8.23463C1.4569 7.86974 1.48978 7.48832 1.63325 7.14288C1.77672 6.79744 2.02374 6.50496 2.3403 6.30571C2.65686 6.10645 3.0274 6.01022 3.40091 6.03025L4.69543 6.09755C4.94842 6.1105 5.20132 6.07018 5.43774 5.97919C5.67417 5.88821 5.88885 5.74858 6.06789 5.56936C6.24692 5.39014 6.38632 5.17531 6.47706 4.93879C6.56781 4.70227 6.60786 4.44933 6.59464 4.19635L6.52833 2.90183C6.50919 2.52866 6.60607 2.15872 6.80565 1.84282C7.00524 1.52693 7.29774 1.28059 7.64298 1.13763C7.98821 0.994679 8.36925 0.962131 8.73372 1.04446C9.0982 1.12679 9.42825 1.31995 9.67852 1.59742L10.5475 2.5594C10.7171 2.74734 10.9243 2.89758 11.1556 3.00041C11.387 3.10325 11.6373 3.15638 11.8905 3.15638C12.1436 3.15638 12.394 3.10325 12.6253 3.00041C12.8567 2.89758 13.0639 2.74734 13.2335 2.5594L14.1024 1.59742C14.3527 1.31995 14.6828 1.12679 15.0472 1.04446C15.4117 0.962131 15.7927 0.994679 16.138 1.13763C16.4832 1.28059 16.7757 1.52693 16.9753 1.84282C17.1749 2.15872 17.2718 2.52866 17.2526 2.90183L17.1863 4.19635C17.1731 4.44933 17.2132 4.70227 17.3039 4.93879C17.3946 5.17531 17.534 5.39014 17.7131 5.56936C17.8921 5.74858 18.1068 5.88821 18.3432 5.97919C18.5796 6.07018 18.8325 6.1105 19.0855 6.09755L20.3801 6.03223C20.7531 6.0127 21.1231 6.10915 21.4392 6.30832C21.7552 6.5075 22.0019 6.79963 22.1452 7.14461C22.2886 7.48959 22.3217 7.87049 22.2399 8.23501C22.1581 8.59953 21.9654 8.92979 21.6884 9.18044L20.7264 10.0484C20.5386 10.2182 20.3885 10.4255 20.2857 10.6569C20.183 10.8883 20.1299 11.1387 20.1299 11.3919C20.1299 11.6451 20.183 11.8955 20.2857 12.1269C20.3885 12.3583 20.5386 12.5656 20.7264 12.7354L21.6884 13.6034C21.966 13.8537 22.1592 14.1838 22.2415 14.5484C22.3238 14.913 22.2912 15.2941 22.1481 15.6394C22.005 15.9847 21.7585 16.2772 21.4424 16.4767C21.1264 16.6762 20.7563 16.7729 20.383 16.7536L19.0855 16.6872" stroke="#33B99C" stroke-linecap="round" stroke-linejoin="round"/>
<path d="M10.406 22.5265H13.375" stroke="#33B99C" stroke-linecap="round" stroke-linejoin="round"/>
<path d="M17.0863 12.1347C17.091 11.17 16.8269 10.2231 16.3238 9.40003C15.8207 8.57694 15.0984 7.91015 14.2378 7.47436C13.3772 7.03856 12.4122 6.85096 11.451 6.93257C10.4898 7.01417 9.57024 7.36176 8.7954 7.93641C8.02055 8.51106 7.42099 9.29007 7.06384 10.1862C6.7067 11.0823 6.60608 12.0602 6.77326 13.0103C6.94044 13.9603 7.36881 14.8451 8.0104 15.5655C8.65199 16.2859 9.48147 16.8135 10.4059 17.0891V19.5574H13.375V17.0891C14.4445 16.7729 15.3835 16.1199 16.0521 15.2273C16.7208 14.3346 17.0835 13.25 17.0863 12.1347Z" stroke="#33B99C" stroke-linecap="round" stroke-linejoin="round"/>
</svg>
