<svg width="24" height="24" viewBox="0 0 24 24" fill="none" xmlns="http://www.w3.org/2000/svg">
<path d="M17.8099 10.5829L22.3981 6.00167C22.6817 5.72778 22.9079 5.40016 23.0635 5.03792C23.2191 4.67568 23.301 4.28608 23.3044 3.89185C23.3078 3.49761 23.2327 3.10665 23.0834 2.74176C22.9342 2.37687 22.7137 2.04537 22.4349 1.76659C22.1561 1.48782 21.8246 1.26736 21.4597 1.11807C21.0949 0.968782 20.7039 0.893659 20.3097 0.897085C19.9154 0.900511 19.5258 0.982416 19.1636 1.13802C18.8014 1.29363 18.4737 1.51982 18.1998 1.8034L13.6186 6.37676" stroke="#33B99C" stroke-linecap="round" stroke-linejoin="round"/>
<path d="M5.70106 14.2943L5.07062 14.9247C4.79232 15.2031 4.63597 15.5807 4.63597 15.9743C4.63597 16.368 4.79232 16.7455 5.07062 17.0239L7.17372 19.124C7.45211 19.4023 7.82964 19.5587 8.22328 19.5587C8.61693 19.5587 8.99446 19.4023 9.27285 19.124L9.64893 18.7479" stroke="#33B99C" stroke-linecap="round" stroke-linejoin="round"/>
<path d="M22.3981 6.00159C22.6739 6.2773 22.8926 6.60463 23.0419 6.96489C23.1911 7.32514 23.2679 7.71127 23.2679 8.10122C23.2679 8.49116 23.1911 8.87729 23.0419 9.23755C22.8926 9.59781 22.6739 9.92514 22.3981 10.2008L21.0482 11.5508" stroke="#33B99C" stroke-linecap="round" stroke-linejoin="round"/>
<path d="M6.11077 18.0611C5.67396 17.6477 5.09209 17.4227 4.49082 17.4348C3.88956 17.4468 3.31715 17.6949 2.89724 18.1254C2.00157 19.0211 1 23.2015 1 23.2015C1 23.2015 5.15076 22.1703 6.04743 21.2746C6.47803 20.8547 6.72607 20.2821 6.73793 19.6808C6.74978 19.0795 6.52449 18.4976 6.11077 18.0611V18.0611Z" stroke="#33B99C" stroke-linecap="round" stroke-linejoin="round"/>
<path d="M6.07216 1.8034L20.2435 15.9748L16.0443 20.1731L1.98573 6.11449C1.46331 5.6148 1.13332 4.94726 1.05352 4.22875C0.973729 3.51025 1.14922 2.78657 1.54927 2.18443C1.79926 1.8318 2.12323 1.53801 2.49854 1.32359C2.87385 1.10916 3.29146 0.979262 3.72218 0.942976C4.1529 0.90669 4.58636 0.964887 4.99225 1.1135C5.39815 1.26212 5.7667 1.49757 6.07216 1.8034V1.8034Z" stroke="#33B99C" stroke-linecap="round" stroke-linejoin="round"/>
<path d="M1.8729 6.00159C1.59714 6.2773 1.37839 6.60463 1.22915 6.96489C1.07991 7.32514 1.0031 7.71127 1.0031 8.10122C1.0031 8.49116 1.07991 8.87729 1.22915 9.23755C1.37839 9.59781 1.59714 9.92514 1.8729 10.2008L3.22679 11.5577" stroke="#33B99C" stroke-linecap="round" stroke-linejoin="round"/>
<path d="M7.13806 11.2668L11.3373 7.06848" stroke="#33B99C" stroke-linecap="round" stroke-linejoin="round"/>
<path d="M23.2681 23.2015L20.2436 15.9747L16.0443 20.173L23.2681 23.2015Z" stroke="#33B99C" stroke-linecap="round" stroke-linejoin="round"/>
</svg>
