<svg width="24" height="24" viewBox="0 0 24 24" fill="none" xmlns="http://www.w3.org/2000/svg">
<path d="M1 23.3196V4.02059L5.45361 1.05151V23.3196" stroke="#33B99C" stroke-linecap="round" stroke-linejoin="round"/>
<path d="M1 14.4124H5.45361" stroke="#33B99C" stroke-linecap="round" stroke-linejoin="round"/>
<path d="M1 9.95874H6.93815" stroke="#33B99C" stroke-linecap="round" stroke-linejoin="round"/>
<path d="M1 18.866H9.19464" stroke="#33B99C" stroke-linecap="round" stroke-linejoin="round"/>
<path d="M15.8454 1.7937L14.5023 3.47618C13.4505 4.79126 12.8771 6.42493 12.8763 8.10892V21.8349H18.8144V8.10892C18.8136 6.42493 18.2402 4.79126 17.1884 3.47618L15.8454 1.7937Z" stroke="#33B99C" stroke-linecap="round" stroke-linejoin="round"/>
<path d="M12.8763 21.8351L9.49648 22.7823C9.38332 22.8388 9.25759 22.8654 9.13124 22.8597C9.00489 22.8539 8.8821 22.816 8.77452 22.7494C8.66695 22.6829 8.57816 22.59 8.51658 22.4795C8.455 22.369 8.42267 22.2447 8.42267 22.1182V21.7936C8.4228 20.6908 8.72998 19.6099 9.30979 18.672C9.8896 17.734 10.7191 16.976 11.7055 16.4829L12.8763 15.897V21.8351Z" stroke="#33B99C" stroke-linecap="round" stroke-linejoin="round"/>
<path d="M12.8763 21.8351L9.49648 22.7823C9.38332 22.8388 9.25759 22.8654 9.13124 22.8597C9.00489 22.8539 8.8821 22.816 8.77452 22.7494C8.66695 22.6829 8.57816 22.59 8.51658 22.4795C8.455 22.369 8.42267 22.2447 8.42267 22.1182V21.7936C8.4228 20.6908 8.72998 19.6099 9.30979 18.672C9.8896 17.734 10.7191 16.976 11.7055 16.4829L12.8763 15.897V21.8351Z" stroke="#33B99C" stroke-linecap="round" stroke-linejoin="round"/>
<path d="M18.8145 21.8351L22.1942 22.7823C22.3074 22.8388 22.4331 22.8654 22.5595 22.8597C22.6858 22.8539 22.8086 22.816 22.9162 22.7494C23.0238 22.6829 23.1126 22.59 23.1742 22.4795C23.2357 22.369 23.2681 22.2447 23.2681 22.1182V21.7936C23.2679 20.6908 22.9608 19.6099 22.3809 18.672C21.8011 17.734 20.9716 16.976 19.9853 16.4829L18.8145 15.897V21.8351Z" stroke="#33B99C" stroke-linecap="round" stroke-linejoin="round"/>
<path d="M18.8145 21.8351L22.1942 22.7823C22.3074 22.8388 22.4331 22.8654 22.5595 22.8597C22.6858 22.8539 22.8086 22.816 22.9162 22.7494C23.0238 22.6829 23.1126 22.59 23.1742 22.4795C23.2357 22.369 23.2681 22.2447 23.2681 22.1182V21.7936C23.2679 20.6908 22.9608 19.6099 22.3809 18.672C21.8011 17.734 20.9716 16.976 19.9853 16.4829L18.8145 15.897V21.8351Z" stroke="#33B99C" stroke-linecap="round" stroke-linejoin="round"/>
</svg>
