<svg width="24" height="24" viewBox="0 0 24 24" fill="none" xmlns="http://www.w3.org/2000/svg">
<path d="M21.6394 20.0309H11.4535C11.2499 20.0299 11.0485 19.9887 10.8608 19.9098C10.6731 19.8309 10.5028 19.7158 10.3596 19.571C10.2164 19.4263 10.1031 19.2547 10.0262 19.0662C9.94937 18.8776 9.91041 18.6758 9.91158 18.4722V11.1979C9.89631 11.0015 9.92131 10.8041 9.98504 10.6177C10.0488 10.4313 10.1499 10.2599 10.2822 10.1139C10.4145 9.96797 10.5753 9.85059 10.7546 9.76895C10.9338 9.68732 11.1279 9.64316 11.3249 9.63917H21.6394C22.0602 9.638 22.4651 9.79958 22.7694 10.0901C23.0738 10.3806 23.254 10.7776 23.2724 11.1979V18.4722C23.254 18.8925 23.0738 19.2895 22.7694 19.58C22.4651 19.8705 22.0602 20.0321 21.6394 20.0309V20.0309Z" stroke="#33B99C" stroke-linecap="round" stroke-linejoin="round"/>
<path d="M16.592 20.0309V23" stroke="#33B99C" stroke-linecap="round" stroke-linejoin="round"/>
<path d="M12.8806 22.9999H20.3033" stroke="#33B99C" stroke-linecap="round" stroke-linejoin="round"/>
<path d="M5.45798 8.1546V4.29481C5.47844 3.92105 5.64614 3.57063 5.92436 3.32023C6.20259 3.06983 6.56868 2.93984 6.94251 2.95872C7.3157 2.93982 7.68122 3.06926 7.95934 3.31882C8.23745 3.56838 8.40558 3.9178 8.42705 4.29085V8.15064" stroke="#33B99C" stroke-linecap="round" stroke-linejoin="round"/>
<path d="M5.45798 5.92786H8.42705" stroke="#33B99C" stroke-linecap="round" stroke-linejoin="round"/>
<path d="M15.1074 14.835H17.3342C17.5311 14.835 17.7199 14.9132 17.8591 15.0524C17.9983 15.1916 18.0765 15.3804 18.0765 15.5772V16.3195C18.0765 16.5164 17.9983 16.7052 17.8591 16.8444C17.7199 16.9836 17.5311 17.0618 17.3342 17.0618H15.1074V14.835Z" stroke="#33B99C" stroke-linecap="round" stroke-linejoin="round"/>
<path d="M15.1074 12.6082H17.3342C17.5311 12.6082 17.7199 12.6864 17.8591 12.8256C17.9983 12.9648 18.0765 13.1536 18.0765 13.3504V14.0927C18.0765 14.2896 17.9983 14.4784 17.8591 14.6176C17.7199 14.7568 17.5311 14.835 17.3342 14.835H15.1074V12.6082Z" stroke="#33B99C" stroke-linecap="round" stroke-linejoin="round"/>
<path d="M6.9425 11.1237H2.54629C2.34268 11.1227 2.14126 11.0815 1.95356 11.0026C1.76585 10.9237 1.59553 10.8086 1.45234 10.6638C1.30914 10.519 1.19587 10.3475 1.11901 10.1589C1.04214 9.97039 1.00318 9.76854 1.00435 9.56493V2.2907C0.989085 2.09429 1.01408 1.89684 1.07782 1.71044C1.14155 1.52404 1.24268 1.35262 1.375 1.20668C1.50732 1.06074 1.66804 0.943355 1.84733 0.861721C2.02661 0.780087 2.22068 0.735922 2.41763 0.731934H12.8806C13.0812 0.734306 13.2793 0.776798 13.4632 0.856907C13.6471 0.937016 13.8131 1.05312 13.9515 1.19838C14.0898 1.34364 14.1977 1.51512 14.2688 1.70272C14.3398 1.89032 14.3726 2.09023 14.3652 2.2907V6.67008" stroke="#33B99C" stroke-linecap="round" stroke-linejoin="round"/>
<path d="M6.9425 11.1237V14.0927" stroke="#33B99C" stroke-linecap="round" stroke-linejoin="round"/>
<path d="M3.97342 14.0928H6.94249" stroke="#33B99C" stroke-linecap="round" stroke-linejoin="round"/>
</svg>
