<svg width="56" height="47" viewBox="0 0 56 47" fill="none" xmlns="http://www.w3.org/2000/svg">
<path d="M21 0.0158559C7.68293 1.52606 0 10.0839 0 23.1723V42.9728C0 45.6576 1.53658 47 4.09756 47H20.3171C22.878 47 24.4146 45.6576 24.4146 42.9728V27.0317C24.4146 24.5147 22.878 23.1723 20.3171 23.1723H12.9756C12.9756 14.7823 15.7073 11.0907 21.3415 9.91609C23.2195 9.41269 24.4146 8.40588 24.4146 6.56008V3.03627C24.4146 1.02267 23.2195 -0.151942 21 0.0158559ZM52.9268 9.91609C54.8049 9.41269 56 8.40588 56 6.56008V3.03627C56 1.02267 54.8049 -0.151942 52.5854 0.0158559C39.2683 1.52606 31.5854 10.0839 31.5854 23.1723V42.9728C31.5854 45.6576 33.122 47 35.6829 47H51.9024C54.4634 47 56 45.6576 56 42.9728V27.0317C56 24.5147 54.4634 23.1723 51.9024 23.1723H44.561C44.561 14.7823 47.2927 11.0907 52.9268 9.91609Z" fill="#33B99C" fill-opacity="0.18"/>
</svg>
