<svg width="18" height="24" viewBox="0 0 18 24" fill="none" xmlns="http://www.w3.org/2000/svg">
<path d="M9.86589 18.8151C9.86589 19.2088 10.0223 19.5864 10.3007 19.8648C10.5791 20.1432 10.9567 20.2996 11.3504 20.2996C11.7442 20.2996 12.1217 20.1432 12.4002 19.8648C12.6786 19.5864 12.835 19.2088 12.835 18.8151C12.835 18.4214 12.6786 18.0438 12.4002 17.7654C12.1217 17.487 11.7442 17.3306 11.3504 17.3306C10.9567 17.3306 10.5791 17.487 10.3007 17.7654C10.0223 18.0438 9.86589 18.4214 9.86589 18.8151V18.8151Z" stroke="#33B99C" stroke-linecap="round" stroke-linejoin="round"/>
<path d="M12.0492 17.5047L15.8041 2.48511" stroke="#33B99C" stroke-linecap="round" stroke-linejoin="round"/>
<path d="M9.12364 14.3615H16.5463" stroke="#33B99C" stroke-linecap="round" stroke-linejoin="round"/>
<path d="M11.4187 1.00757C11.4667 1.01625 11.5125 1.03436 11.5535 1.06085C11.5944 1.08734 11.6298 1.12168 11.6574 1.1619C11.685 1.20212 11.7043 1.24741 11.7143 1.29515C11.7243 1.34289 11.7248 1.39215 11.7156 1.44006" stroke="#33B99C" stroke-linecap="round" stroke-linejoin="round"/>
<path d="M10.9863 1.30346C10.9949 1.25546 11.013 1.20965 11.0395 1.16869C11.066 1.12773 11.1004 1.09242 11.1406 1.06481C11.1808 1.03721 11.2261 1.01784 11.2738 1.00784C11.3216 0.99784 11.3708 0.997402 11.4187 1.00655" stroke="#33B99C" stroke-linecap="round" stroke-linejoin="round"/>
<path d="M11.2821 1.73695C11.2342 1.72803 11.1884 1.70974 11.1475 1.68311C11.1066 1.65649 11.0714 1.62206 11.0438 1.58179C11.0162 1.54153 10.9968 1.49622 10.9868 1.44846C10.9767 1.4007 10.9762 1.35143 10.9852 1.30347" stroke="#33B99C" stroke-linecap="round" stroke-linejoin="round"/>
<path d="M11.7146 1.44006C11.6966 1.53676 11.6409 1.62235 11.5598 1.67803C11.4787 1.7337 11.3789 1.7549 11.2822 1.73697" stroke="#33B99C" stroke-linecap="round" stroke-linejoin="round"/>
<path d="M5.85172 3.60547C5.8997 3.61439 5.94545 3.63268 5.98635 3.65931C6.02725 3.68593 6.0625 3.72036 6.09008 3.76063C6.11766 3.80089 6.13703 3.8462 6.14707 3.89396C6.15712 3.94172 6.15764 3.99099 6.14862 4.03895" stroke="#33B99C" stroke-linecap="round" stroke-linejoin="round"/>
<path d="M5.41925 3.90139C5.43728 3.80469 5.49295 3.7191 5.57405 3.66343C5.65515 3.60776 5.75503 3.58656 5.85175 3.60448" stroke="#33B99C" stroke-linecap="round" stroke-linejoin="round"/>
<path d="M5.71517 4.33485C5.66713 4.32605 5.6213 4.30784 5.58033 4.28125C5.53936 4.25466 5.50406 4.22022 5.47646 4.17993C5.44886 4.13963 5.42951 4.09427 5.41952 4.04646C5.40953 3.99865 5.4091 3.94934 5.41826 3.90137" stroke="#33B99C" stroke-linecap="round" stroke-linejoin="round"/>
<path d="M6.14863 4.03894C6.13038 4.13572 6.0745 4.22131 5.99324 4.27697C5.91199 4.33262 5.81199 4.35379 5.71515 4.33585" stroke="#33B99C" stroke-linecap="round" stroke-linejoin="round"/>
<path d="M8.93758 10.6995C9.02287 10.7486 9.08518 10.8295 9.11079 10.9245C9.13641 11.0196 9.12323 11.1209 9.07415 11.2062" stroke="#33B99C" stroke-linecap="round" stroke-linejoin="round"/>
<path d="M8.43086 10.8352C8.48031 10.7502 8.56134 10.6883 8.65627 10.6629C8.75121 10.6375 8.85233 10.6507 8.93758 10.6996" stroke="#33B99C" stroke-linecap="round" stroke-linejoin="round"/>
<path d="M8.56646 11.3428C8.48133 11.2935 8.41923 11.2125 8.39381 11.1175C8.36839 11.0225 8.38172 10.9212 8.43087 10.8361" stroke="#33B99C" stroke-linecap="round" stroke-linejoin="round"/>
<path d="M9.07415 11.2063C9.04976 11.2486 9.01726 11.2856 8.97853 11.3153C8.9398 11.3451 8.89558 11.3668 8.84842 11.3794C8.80126 11.392 8.75208 11.3952 8.70369 11.3887C8.6553 11.3823 8.60866 11.3664 8.56644 11.3419" stroke="#33B99C" stroke-linecap="round" stroke-linejoin="round"/>
<path d="M2.44322 10.65H4.67003" stroke="#33B99C" stroke-linecap="round" stroke-linejoin="round"/>
<path d="M2.44322 18.0728H4.67003" stroke="#33B99C" stroke-linecap="round" stroke-linejoin="round"/>
<path d="M2.44322 14.3615H4.67003" stroke="#33B99C" stroke-linecap="round" stroke-linejoin="round"/>
<path d="M10.6082 6.93872H1.70095C1.56661 6.93873 1.43479 6.9752 1.31954 7.04424C1.2043 7.11328 1.10995 7.21231 1.04656 7.33075C0.983175 7.4492 0.953121 7.58263 0.959606 7.71682C0.966091 7.85101 1.00887 7.98092 1.08339 8.0927L2.31852 8.97847L2.44322 9.22095V21.7841C2.44322 22.1778 2.59963 22.5554 2.87803 22.8338C3.15644 23.1122 3.53404 23.2686 3.92776 23.2686H15.0618C15.4555 23.2686 15.8331 23.1122 16.1115 22.8338C16.3899 22.5554 16.5463 22.1778 16.5463 21.7841V11.3923" stroke="#33B99C" stroke-linecap="round" stroke-linejoin="round"/>
</svg>
