<svg id="Layer_1" xmlns="http://www.w3.org/2000/svg" viewBox="0 0 200 200">
  <style>
    .st0{fill:#FFFFFF;stroke:#231F20;stroke-width:10;stroke-miterlimit:10;} .st1{fill:#FFFFFF;stroke:#000000;stroke-width:3.35;stroke-miterlimit:10;} .st2{fill:none;stroke:#000000;stroke-width:3.35;stroke-miterlimit:10;} .st3{fill:#FFFFFF;}
  </style>
  <path d="M132.3 50.5H61.7c-10.3 0-18.8 8.4-18.8 18.7v33c0 10.3 8.4 18.7 18.8 18.7h70.6c10.3 0 18.7-8.4 18.7-18.7v-33c0-10.2-8.4-18.7-18.7-18.7zm15.3 51.8c0 8.5-6.9 15.4-15.4 15.4H61.7c-8.5 0-15.4-6.9-15.4-15.4v-33c0-8.5 6.9-15.4 15.4-15.4h70.6c8.5 0 15.4 6.9 15.4 15.4v33zm-31.4 45.2c2.9 3.7 8.7 2.6 10.2-1.8l7.9-24.6H95.4l20.8 26.4z"/>
  <path d="M131 67.9H62.9c-1.8 0-3.3 1.5-3.3 3.3s1.5 3.3 3.3 3.3H131c1.8 0 3.3-1.5 3.3-3.3s-1.5-3.3-3.3-3.3zm0 30H62.9c-1.8 0-3.3 1.5-3.3 3.3 0 1.8 1.5 3.3 3.3 3.3H131c1.8 0 3.3-1.5 3.3-3.3 0-1.9-1.5-3.3-3.3-3.3zm0-15H62.9c-1.8 0-3.3 1.5-3.3 3.3 0 1.8 1.5 3.3 3.3 3.3H131c1.8 0 3.3-1.5 3.3-3.3 0-1.9-1.5-3.3-3.3-3.3z"/>
</svg>
