<svg id="Layer_1" xmlns="http://www.w3.org/2000/svg" viewBox="0 0 200 200">
  <style>
    .st0{fill:#FFFFFF;stroke:#231F20;stroke-width:10;stroke-miterlimit:10;} .st1{fill:#FFFFFF;stroke:#000000;stroke-width:3.35;stroke-miterlimit:10;} .st2{fill:none;stroke:#000000;stroke-width:3.35;stroke-miterlimit:10;} .st3{fill:#FFFFFF;}
  </style>
  <path d="M161.5 83.7S116.9 85 101.7 85 42 83.7 42 83.7c-3.7 0-6.6 3-6.6 6.6 0 3.7 3 6.6 6.6 6.6 0 0 49.6-.9 59.8-1.2 10.2.3 59.8 1.2 59.8 1.2 3.7 0 6.6-3 6.6-6.6-.1-3.7-3-6.6-6.7-6.6zm-51.2 34.7c-2.3-2.3-5.3-3.6-8.6-3.6-3.2 0-6.3 1.3-8.6 3.6l-20.9 20.9c-3.2 3.2-3.2 8.5 0 11.7 1.6 1.6 3.7 2.4 5.9 2.4 2.1 0 4.2-.8 5.9-2.4l17-17c.4-.4 1-.4 1.4 0l17.1 17.1c3.2 3.2 8.5 3.2 11.7 0 3.2-3.2 3.2-8.5 0-11.7l-20.9-21zm18.6 30.3c-1.9 1.9-5.1 1.9-7 0l-17.1-17.1c-.8-.8-1.9-1.3-3.1-1.3s-2.3.5-3.1 1.3l-17.1 17.1c-1.9 1.9-5.1 1.9-7 0-1.9-1.9-1.9-5.1 0-7l20.9-20.9c1.7-1.7 3.9-2.6 6.2-2.6 2.3 0 4.6.9 6.2 2.6l20.9 20.9c2.1 1.9 2.1 5 .2 7z"/>
</svg>
