<svg id="Layer_1" xmlns="http://www.w3.org/2000/svg" viewBox="0 0 200 200">
  <style>
    .st0{fill:#FFFFFF;stroke:#231F20;stroke-width:10;stroke-miterlimit:10;} .st1{fill:#FFFFFF;stroke:#000000;stroke-width:3.35;stroke-miterlimit:10;} .st2{fill:none;stroke:#000000;stroke-width:3.35;stroke-miterlimit:10;} .st3{fill:#FFFFFF;}
  </style>
  <path d="M142.7 90.7c0-6.8-5.1-12.4-11.7-13.3v-9.6c0-2.8-1.3-5.4-3.6-7.1-2.3-1.7-5.2-2.2-7.9-1.4L72.1 73.8c-3.4 1-6.6 2.6-9.6 4.6-4.4 3-7 8-7 13.3 0 5.3 2.6 10.3 7 13.3 2.9 2 6.2 3.6 9.6 4.6l6 1.8v25.3c0 3.2 2.6 5.8 5.8 5.8H88c3.2 0 5.8-2.6 5.8-5.8v-20.6l25.9 7.9c.9.3 1.7.4 2.6.4 1.9 0 3.7-.6 5.3-1.8 2.3-1.7 3.6-4.3 3.6-7.1V104c6.5-.9 11.5-6.5 11.5-13.3zm-15 24.7c0 1.8-.8 3.4-2.2 4.5-1.4 1.1-3.2 1.4-4.9.9l-47.5-14.4c-3.1-.9-6-2.3-8.6-4.1C61 99.9 59 96 59 91.8c0-4.3 2-8.1 5.5-10.5 2.7-1.8 5.6-3.2 8.6-4.1l47.5-14.4c1.7-.5 3.5-.2 4.9.9 1.4 1.1 2.2 2.7 2.2 4.5v47.2z"/>
</svg>
