<?xml version="1.0" encoding="utf-8"?>
<!-- Generator: Adobe Illustrator 18.1.1, SVG Export Plug-In . SVG Version: 6.00 Build 0)  -->
<!DOCTYPE svg PUBLIC "-//W3C//DTD SVG 1.1//EN" "http://www.w3.org/Graphics/SVG/1.1/DTD/svg11.dtd">
<svg version="1.1" xmlns="http://www.w3.org/2000/svg" xmlns:xlink="http://www.w3.org/1999/xlink" x="0px" y="0px"
	 viewBox="0 0 100 100" enable-background="new 0 0 100 100" xml:space="preserve" fill="#ffffff">
<g id="Guides">
</g>
<g id="Artwork">
	<g>
		<path d="M94.6,81.7c-0.2-0.2-0.5-0.3-0.8-0.3h-5.9c0,0,0,0,0,0V55H90c0.5,0,1-0.2,1.4-0.6v15.7c0,0.3,0.3,0.6,0.6,0.6
			c0.3,0,0.6-0.3,0.6-0.6V53.6c0-1.1-0.9-4.6-2.5-4.6c0,0,0,0,0,0H79.2V36C79.2,19.8,66,6.7,49.9,6.7C33.7,6.7,20.6,19.8,20.6,36
			v13.1H10c0,0,0,0,0,0c-1.6,0-2.5,3.4-2.5,4.6v16.5c0,0.3,0.3,0.6,0.6,0.6c0.3,0,0.6-0.3,0.6-0.6V54.5C9,54.8,9.5,55,10,55h2v26.3
			c0,0,0,0,0,0H6.3c-0.6,0-1.2,0.5-1.2,1.2l0,9.6c0,0.3,0.1,0.6,0.3,0.8c0.2,0.2,0.5,0.3,0.8,0.3h87.5c0.6,0,1.2-0.5,1.2-1.2l0-9.6
			C94.9,82.2,94.8,81.9,94.6,81.7z M26.9,36.5c0-12.7,10.3-23,23-23c12.7,0,23,10.3,23,23v12.6h-2.7v-12c0-11.2-9.1-20.9-20.3-20.9
			c-11.2,0-20.3,9.7-20.3,20.9v12h-2.7V36.5z M51.9,33.4v-4.9h-3.9v4.9H43v3.9h4.9v11.7h-16v-12c0-9.9,8.1-18.6,18-18.6
			c9.9,0,18,8.6,18,18.6v12h-16V37.4h4.9v-3.9H51.9z M14.3,55h71.3v26.3H14.3V55z M92.6,91H7.4v-7.3h85.2V91z"/>
		<rect x="9.9" y="86" width="80.3" height="2.6"/>
		<rect x="18.1" y="58.8" width="63.7" height="18.7"/>
	</g>
</g>
</svg>
