<?xml version="1.0" encoding="utf-8"?>
<!-- Generator: Adobe Illustrator 18.1.1, SVG Export Plug-In . SVG Version: 6.00 Build 0)  -->
<!DOCTYPE svg PUBLIC "-//W3C//DTD SVG 1.1//EN" "http://www.w3.org/Graphics/SVG/1.1/DTD/svg11.dtd">
<svg version="1.1" xmlns="http://www.w3.org/2000/svg" xmlns:xlink="http://www.w3.org/1999/xlink" x="0px" y="0px"
	 viewBox="0 0 100 100" enable-background="new 0 0 100 100" xml:space="preserve" fill="#ffffff">
<g id="Guides">
</g>
<g id="Artwork">
	<path d="M62,93.7l10.7-2.4c1.1-0.2,1.9-1.2,1.9-2.4V39.6l4.4-0.9c0.6-0.1,1-0.6,1-1.2v-7.3c0-0.4-0.2-0.7-0.5-1
		c-0.3-0.2-0.6-0.3-0.9-0.2c0,0,0,0,0,0l-13.2-2.5c-1.9-4.8-6.8-8-13.6-8.4v-5.5h3.7V10h-3.7V6.3h-2.4V10h-3.7v2.4h3.7v5.5
		c-7.1,0.2-12.3,3.4-14.3,8.4l-13.7,2.6c0,0,0,0,0,0c-0.3,0-0.7,0-0.9,0.2c-0.3,0.2-0.5,0.6-0.5,1v7.3c0,0.6,0.4,1.1,1,1.2l4.3,0.9
		v49.3c0,1.2,0.8,2.1,1.9,2.4L38,93.7H62z M50.3,20.4c7.5,0,13.6,3.6,13.6,10.7c0,0-4.6,1-13.6,1c-8.9,0-13.6-1-13.6-1
		C36.7,23.9,42.8,20.4,50.3,20.4z M22.5,36.5v-4.8l12.2,2.6v4.8L22.5,36.5z M38,91.1l-10.2-2.2V40.1l2.6,0.6v45.2l4.9,1.1V41.7
		l0.3,0.1c0.1,0,0.2,0,0.3,0h2V91.1z M40.4,91.2V41.8h3.8v45.7h11.6V41.8h3.8v49.3c0,0,0,0,0,0H40.4z M37.2,39.4v-4.9h25.7v4.9H37.2
		z M72.2,88.9L62,91.1V41.8h2.1c0.1,0,0.2,0,0.3,0l0.3-0.1v45.2l4.9-1.1V40.7l2.6-0.6V88.9z M77.5,36.5l-12.2,2.6v-4.8l12.2-2.6
		V36.5z"/>
</g>
</svg>
