<?xml version="1.0" encoding="utf-8"?>
<!-- Generator: Adobe Illustrator 18.1.1, SVG Export Plug-In . SVG Version: 6.00 Build 0)  -->
<!DOCTYPE svg PUBLIC "-//W3C//DTD SVG 1.1//EN" "http://www.w3.org/Graphics/SVG/1.1/DTD/svg11.dtd">
<svg version="1.1" xmlns="http://www.w3.org/2000/svg" xmlns:xlink="http://www.w3.org/1999/xlink" x="0px" y="0px"
	 viewBox="0 0 100 100" enable-background="new 0 0 100 100" xml:space="preserve" fill="#ffffff">
<g id="Guides">
</g>
<g id="Artwork">
	<g>
		<path d="M68.8,32.2H31.1v55.2h37.6V32.2z M58.7,57.3h-6.3v17.6h-5V57.3h-6.3v-5h6.3V46h5v6.3h6.3V57.3z"/>
		<path d="M77.7,20.9H51.2V18c0-0.3-0.3-6.6,5.3-8.6c0.5,0.5,1.3,0.9,2,0.9c1.1,0.2,2.1-0.6,2.2-1.7c0.2-1.1-0.6-2.1-1.7-2.2
			c-1-0.1-2.6,0.8-2.9,1.8c-6.6,2.4-6.2,9.8-6.2,9.9v2.9H22.3c-1.4,0-2.5,3.6-2.5,5c0,1.4,1.1,2.5,2.5,2.5h2.6V91
			c0,1.4,1.1,2.6,2.5,2.6h45.4c1.4,0,2.3-1.2,2.3-2.6V28.4h2.7c1.4,0,2.5-1.1,2.5-2.5C80.2,24.5,79.1,20.9,77.7,20.9z M72.5,91.1
			H27.4V28.4h45.1V91.1z"/>
	</g>
</g>
</svg>
