<?xml version="1.0" encoding="utf-8"?>
<!-- Generator: Adobe Illustrator 18.1.1, SVG Export Plug-In . SVG Version: 6.00 Build 0)  -->
<!DOCTYPE svg PUBLIC "-//W3C//DTD SVG 1.1//EN" "http://www.w3.org/Graphics/SVG/1.1/DTD/svg11.dtd">
<svg version="1.1" xmlns="http://www.w3.org/2000/svg" xmlns:xlink="http://www.w3.org/1999/xlink" x="0px" y="0px"
	 viewBox="0 0 100 100" enable-background="new 0 0 100 100" xml:space="preserve" fill="#ffffff">
<g id="Guides">
</g>
<g id="Artwork">
	<g>
		<rect x="73.4" y="60.9" width="3.4" height="26.4"/>
		<rect x="23.2" y="60.9" width="3.4" height="26.4"/>
		<polygon points="33.6,28.4 33.6,28.4 33.6,28.4 		"/>
		<polygon points="33.6,35.4 33.6,35.4 33.6,35.4 		"/>
		<path d="M34.8,34c0-0.3,0-1.1,0-1.1c0-2.1-1.2-4.5-1.2-4.5c0,0-1.2,2.4-1.2,4.5c0,0,0,0.8,0,1.1c0,0.7,0.5,1.3,1.2,1.3
			C34.3,35.4,34.8,34.8,34.8,34z M32.9,33.5v-0.3c0-0.1,0.1-0.2,0.2-0.2h1c0.1,0,0.2,0.1,0.2,0.2v0.3c0,0.1-0.1,0.2-0.2,0.2h-1
			C33,33.7,32.9,33.6,32.9,33.5z"/>
		<polygon points="50,27.6 50,27.6 50,27.6 		"/>
		<polygon points="50,41.8 50,41.8 50,41.8 		"/>
		<path d="M50,41.8c1.4,0,2.5-1.2,2.5-2.7c0-0.5,0-2.2,0-2.2c0-4.3-2.5-9.1-2.5-9.2c0,0.1-2.5,4.9-2.5,9.2c0,0,0,1.7,0,2.2
			C47.5,40.6,48.6,41.8,50,41.8z M48.5,37.7c0-0.2,0.1-0.3,0.3-0.3h2.3c0.2,0,0.3,0.1,0.3,0.3v0.7c0,0.2-0.1,0.3-0.3,0.3h-2.3
			c-0.2,0-0.3-0.1-0.3-0.3V37.7z"/>
		<polygon points="41,38.7 41,38.7 41,38.7 		"/>
		<polygon points="41,29.8 41,29.8 41,29.8 		"/>
		<path d="M41,38.7c0.9,0,1.6-0.8,1.6-1.7c0-0.3,0-1.4,0-1.4c0-2.7-1.5-5.7-1.6-5.8c0,0.1-1.6,3.1-1.6,5.8c0,0,0,1.1,0,1.4
			C39.4,37.9,40.1,38.7,41,38.7z M40.1,35.9c0-0.1,0.1-0.2,0.2-0.2h1.3c0.1,0,0.2,0.1,0.2,0.2v0.4c0,0.1-0.1,0.2-0.2,0.2h-1.3
			c-0.1,0-0.2-0.1-0.2-0.2V35.9z"/>
		<polygon points="59,38.7 59,38.7 59,38.7 		"/>
		<polygon points="59,29.8 59,29.8 59,29.8 		"/>
		<path d="M59,38.7c0.9,0,1.6-0.8,1.6-1.7c0-0.3,0-1.4,0-1.4c0-2.7-1.5-5.7-1.6-5.8c0,0.1-1.6,3.1-1.6,5.8c0,0,0,1.1,0,1.4
			C57.4,37.9,58.1,38.7,59,38.7z M58.2,35.9c0-0.1,0.1-0.2,0.2-0.2h1.3c0.1,0,0.2,0.1,0.2,0.2v0.4c0,0.1-0.1,0.2-0.2,0.2h-1.3
			c-0.1,0-0.2-0.1-0.2-0.2V35.9z"/>
		<polygon points="66.3,35.4 66.3,35.4 66.3,35.4 		"/>
		<polygon points="66.3,28.4 66.3,28.4 66.3,28.4 		"/>
		<path d="M65.1,32.9c0,0,0,0.8,0,1.1c0,0.7,0.5,1.3,1.2,1.3c0.7,0,1.2-0.6,1.2-1.3c0-0.3,0-1.1,0-1.1c0-2.1-1.2-4.5-1.2-4.5
			C66.3,28.5,65.1,30.8,65.1,32.9z M66.9,33.2v0.3c0,0.1-0.1,0.2-0.2,0.2h-1c-0.1,0-0.2-0.1-0.2-0.2v-0.3c0-0.1,0.1-0.2,0.2-0.2h1
			C66.9,33.1,66.9,33.2,66.9,33.2z"/>
		<path d="M80.6,54.8H69.6c-0.2,0-0.4,0-0.6,0.1l0.1-3.6c0.1-0.9,0.2-1.8,0.3-2.7l1.1-9.1c0.2-2.3,0.4-4.6,0.4-6.8V21.5
			c0-0.6-0.2-1.1-0.6-1.6l-0.1-0.1c-1.1-1.3-2.5-2-4-2h0c-0.8,0-1.5,0.2-2.2,0.6v-2.2c0-0.7-0.3-1.3-0.8-1.8l-0.1-0.1
			c-1.2-1.2-2.7-1.8-4.3-1.8h0c-1,0-1.9,0.3-2.8,0.7v-3.1c0-0.8-0.4-1.5-1-2L55,8.1c-1.5-1-3.2-1.6-5-1.6h0c-1.9,0-3.7,0.6-5.2,1.7
			c-0.6,0.5-1,1.2-1,2v3.1c-0.9-0.5-1.9-0.8-2.9-0.8h0c-1.6,0-3.2,0.7-4.4,1.9c-0.5,0.5-0.7,1.1-0.7,1.7v2.2
			c-0.7-0.3-1.4-0.5-2.1-0.5h0c-1.5,0-3,0.8-4.1,2.1c-0.3,0.4-0.5,1-0.5,1.5v11.4c0,2.1,0.1,4.2,0.3,6.3l1,9.3
			c0.1,0.9,0.2,1.8,0.3,2.8l0.1,3.6c-0.1,0-0.2-0.1-0.4-0.1H19.4c-1.3,0-2.4,1.1-2.4,2.4v33.8c0,1.3,1.1,2.4,2.4,2.4h10.9
			c0,0,0,0,0,0c0,0,0,0,0,0h2.5h34.4h2.4h0h10.9c1.3,0,2.4-1.1,2.4-2.4V57.2C83,55.9,81.9,54.8,80.6,54.8z M30.4,81.9
			C29,81.9,28,83,28,84.3l0,6.7c0,0,0,0,0,0h-8.5V57.2h10.9V81.9z M61.9,53.4c0.1-0.9,0.2-1.8,0.3-2.7l0.6-4l0.2,1.7
			c0.1,0.9,0.2,1.8,0.3,2.8l0.1,3.5h-1.6L61.9,53.4z M56.2,16.1c0.8-0.8,1.8-1.2,2.7-1.2c0.9,0,1.8,0.4,2.6,1.1l0.1,0.1v18.6
			c0,2.2-0.1,4.4-0.4,6.5l-1.4,9.1c-0.1,1-0.3,1.9-0.4,2.9l-0.1,1.5h-1.1l-0.1-1.5c-0.1-1-0.2-1.9-0.3-2.9L56.6,41
			c-0.2-2-0.4-4-0.4-6V16.1z M55,47.2l0.5,3.5c0.1,0.9,0.2,1.8,0.3,2.7l0.1,1.4h-2.4c0.1-0.3,0.1-0.7,0.2-1L55,47.2z M46.2,10.2
			c1.1-0.8,2.4-1.2,3.7-1.2c1.3,0,2.5,0.4,3.6,1.1l0.1,0.1v27.5c0,2.2-0.2,4.4-0.6,6.5l-1.9,9.1c-0.1,0.5-0.2,1-0.3,1.5h-2.2
			c-0.1-0.5-0.1-1-0.2-1.6l-1.8-9.3c-0.3-2-0.5-4-0.5-6V10.2z M43.9,53.4c0.1-0.9,0.2-1.8,0.3-2.7l0.6-4l1.3,6.9
			c0.1,0.4,0.1,0.7,0.2,1.1h-2.5L43.9,53.4z M38.2,33c0-0.1,0-0.2,0-0.3V21.5c0,0,0-0.1,0-0.1v-5.2c0.8-0.8,1.8-1.2,2.7-1.2
			c0.9,0,1.8,0.4,2.6,1.1l0.1,0.1v18.6c0,2.2-0.1,4.4-0.4,6.5l-1.4,9.1c-0.1,1-0.3,1.9-0.4,2.9l-0.1,1.5h-1.1l-0.1-1.5
			c-0.1-1-0.2-1.9-0.3-2.9L38.5,41c-0.2-2-0.4-4-0.4-6V33z M36.5,51.2c0.1-0.9,0.2-1.8,0.3-2.7l0.2-1.5l0.5,3.7
			c0.1,0.9,0.2,1.8,0.3,2.7l0.1,1.4h-1.5L36.5,51.2z M31.4,32.9V21.5c0.6-0.8,1.4-1.2,2.2-1.2c0.7,0,1.5,0.4,2.1,1.1l0.1,0.1V33
			c0,2.1-0.1,4.2-0.3,6.2l-1.1,9.1c-0.1,1-0.2,1.9-0.3,2.9l-0.1,3.7h-0.8L33,51.1c-0.1-1-0.2-1.9-0.3-2.9l-1-9.3
			C31.5,36.9,31.4,34.9,31.4,32.9z M38.1,81.9l1.7-4c0.2-0.4,0.6-0.7,1.1-0.7h18.2c0.5,0,0.9,0.3,1.1,0.7l1.7,4H38.1z M67.3,72.7
			H32.7v-5.3h34.6V72.7z M67.3,64.9H32.7v-5.3h34.6V64.9z M68.4,32.6c0,2.2-0.1,4.4-0.3,6.5L67,48.2c-0.1,1-0.2,1.9-0.3,2.9
			l-0.1,3.7h-0.8l-0.1-3.7c-0.1-1-0.2-1.9-0.3-2.9l-1-9.3c-0.2-2-0.3-4-0.3-6V21.5c0.6-0.8,1.4-1.2,2.2-1.2c0.7,0,1.5,0.4,2.1,1.1
			l0.1,0.1V32.6z M80.6,91.1h-8.5l0-6.7c0-0.6-0.3-1.3-0.7-1.7c-0.5-0.5-1.1-0.7-1.7-0.7h0V57.2h10.9V91.1z"/>
	</g>
</g>
</svg>
